<?xml version="1.0" encoding="utf-8"?>
<!-- Generator: Adobe Illustrator 21.1.0, SVG Export Plug-In . SVG Version: 6.00 Build 0)  -->
<svg version="1.1" id="Content_1_" xmlns="http://www.w3.org/2000/svg" xmlns:xlink="http://www.w3.org/1999/xlink" x="0px" y="0px"
	 width="48px" height="48px" viewBox="0 0 192 192" enable-background="new 0 0 192 192" xml:space="preserve">
<rect id="bounding_box" y="0" fill="none" width="192" height="192"/>
<g id="logo_x5F_GoogleOne_x5F_clr">
	<g id="Content">
		<path fill="#34A853" d="M129.53,144.99v18.46c0,10.8-8.73,19.56-19.5,19.56s-19.5-8.75-19.5-19.56v-48.33L129.53,144.99z"/>
		<linearGradient id="SVGID_1_" gradientUnits="userSpaceOnUse" x1="110.031" y1="145.9128" x2="110.031" y2="26.5125">
			<stop  offset="0" style="stop-color:#1A73E8"/>
			<stop  offset="1" style="stop-color:#4285F4"/>
		</linearGradient>
		<path fill="url(#SVGID_1_)" d="M129.53,26.56v118.43l-39-29.87v-47.1l31.91-26.38C127.12,37.78,129.53,32.19,129.53,26.56z"/>
		<path fill="#EA4335" d="M129.52,25.88c0.01,0.22,0.01,0.44,0.01,0.67c0,5.63-2.41,11.22-7.09,15.08L90.53,68.01V26.56
			c0-6.4,3.07-12.1,7.84-15.67c0.34-0.26,0.68-0.5,1.05-0.73c0.17-0.11,0.33-0.22,0.5-0.32c0.31-0.2,0.64-0.38,0.94-0.54
			c0.24-0.12,0.62-0.31,0.86-0.43c0.24-0.11,0.48-0.22,0.72-0.33c0.29-0.12,0.58-0.24,0.89-0.35c0.29-0.11,0.6-0.21,0.9-0.31
			c0.56-0.17,1.13-0.33,1.72-0.45c0.17-0.04,0.35-0.07,0.54-0.11c0.13-0.02,0.26-0.04,0.39-0.06c0.23-0.04,0.46-0.07,0.69-0.1
			c0.27-0.04,0.54-0.07,0.82-0.09c0.22-0.02,0.44-0.04,0.66-0.05c0.32-0.01,0.65-0.02,0.98-0.02h0.01c0.71,0,1.4,0.04,2.1,0.11
			c0.34,0.04,0.69,0.09,1.05,0.15c0.34,0.05,0.68,0.12,1.04,0.2c0.34,0.07,0.68,0.16,1.02,0.26c0.28,0.07,0.57,0.16,0.85,0.26
			c0.55,0.18,1.1,0.38,1.62,0.61c0.26,0.11,0.52,0.23,0.78,0.35c0.33,0.16,0.66,0.33,0.98,0.5c0.48,0.27,0.94,0.55,1.4,0.86
			c0.05,0.04,0.1,0.07,0.15,0.1c0.49,0.34,0.96,0.71,1.43,1.09c0.23,0.2,0.46,0.39,0.69,0.6c0.01,0.01,0.01,0.01,0.02,0.02
			c0.22,0.21,0.44,0.42,0.66,0.64c0.22,0.22,0.44,0.45,0.65,0.67c0.43,0.46,0.82,0.95,1.19,1.45c0.26,0.34,0.5,0.7,0.73,1.05
			c0.11,0.17,0.22,0.33,0.32,0.5c0.2,0.31,0.38,0.64,0.54,0.94c0.12,0.24,0.31,0.63,0.43,0.86c0.11,0.24,0.22,0.48,0.32,0.72
			c0.12,0.29,0.24,0.59,0.35,0.89c0.11,0.29,0.21,0.6,0.3,0.9c0.13,0.43,0.24,0.86,0.34,1.28c0.06,0.2,0.1,0.39,0.13,0.59
			c0.06,0.28,0.11,0.55,0.16,0.82c0.04,0.22,0.06,0.44,0.09,0.66c0.04,0.27,0.07,0.54,0.09,0.82c0.02,0.22,0.04,0.44,0.05,0.66
			C129.51,25.66,129.52,25.77,129.52,25.88z"/>
		<path fill="#FBBC04" d="M97.61,11.46c0.24-0.2,0.49-0.39,0.74-0.57c-4.75,3.57-7.82,9.26-7.82,15.67v41.46L73.97,81.73
			c-3.62,3.01-8,4.46-12.37,4.46c-5.61,0-11.18-2.42-15.02-7.11c-6.83-8.34-5.65-20.66,2.64-27.52L97.61,11.46z"/>
	</g>
</g>
</svg>
